<svg width="128" height="125" viewBox="0 0 128 125" fill="none" xmlns="http://www.w3.org/2000/svg">
<path fill-rule="evenodd" clip-rule="evenodd" d="M38.4 19.7368H108.8C119.404 19.7368 128 28.5733 128 39.4737V105.263C128 116.164 119.404 125 108.8 125H38.4C27.7961 125 19.2 116.164 19.2 105.263V39.4737C19.2 28.5733 27.7961 19.7368 38.4 19.7368ZM38.4 32.8947C34.8654 32.8947 32 35.8402 32 39.4737V105.263C32 108.897 34.8654 111.842 38.4 111.842H108.8C112.335 111.842 115.2 108.897 115.2 105.263V39.4737C115.2 35.8402 112.335 32.8947 108.8 32.8947H38.4ZM67.2 82.0087L83.2 52.6316L108.8 98.6842H38.4L57.6 72.3684L67.2 82.0087ZM54.4 65.7895C49.1008 65.7895 44.8 61.3684 44.8 55.9211C44.8 50.4671 49.1008 46.0526 54.4 46.0526C59.6992 46.0526 64 50.4671 64 55.9211C64 61.3684 59.6992 65.7895 54.4 65.7895ZM96 6.57895C96 10.2124 93.1346 13.1579 89.6 13.1579H28.8C19.9634 13.1579 12.8 20.5216 12.8 29.6053V85.5263C12.8 89.1598 9.93462 92.1053 6.4 92.1053C2.86538 92.1053 0 89.1598 0 85.5263V26.3158C0 11.782 11.4615 0 25.6 0H89.6C93.1346 0 96 2.94549 96 6.57895Z" fill="#0A2A0A"/>
</svg>
