<svg width="151" height="148" viewBox="0 0 151 148" fill="none" xmlns="http://www.w3.org/2000/svg">
<path d="M75.5 0C33.8697 0 0 33.1968 0 74C0 114.803 33.8697 148 75.5 148C117.13 148 151 114.803 151 74C151 33.1968 117.13 0 75.5 0ZM57.2711 41.561C61.8701 36.783 68.342 34.1538 75.5 34.1538C82.658 34.1538 89.0718 36.8008 93.689 41.6037C98.3678 46.4706 100.644 53.0096 100.106 60.0396C99.0321 74 87.9974 85.3846 75.5 85.3846C63.0026 85.3846 51.9462 74 50.8935 60.0361C50.36 52.9491 52.6322 46.3888 57.2711 41.561ZM75.5 136.615C66.9716 136.621 58.529 134.948 50.6727 131.695C42.8164 128.443 35.7064 123.677 29.7644 117.681C33.1676 112.925 37.5037 108.88 42.5196 105.784C51.7719 99.9711 63.4817 96.7692 75.5 96.7692C87.5183 96.7692 99.2281 99.9711 108.47 105.784C113.49 108.879 117.83 112.923 121.236 117.681C115.294 123.678 108.184 128.444 100.328 131.697C92.4714 134.949 84.0285 136.622 75.5 136.615Z" fill="#0A2A0A"/>
</svg>
