<svg width="100" height="100" viewBox="0 0 100 100" fill="none" xmlns="http://www.w3.org/2000/svg">
<g clip-path="url(#clip0_1_10)">
<path d="M82.737 44.563L82.027 41.417L98.441 37.658L99.165 40.818L82.737 44.563Z" fill="#0A2A0A"/>
<path d="M90.0495 20.2712L88.0312 17.738L74.8677 28.2254L76.8859 30.7586L90.0495 20.2712Z" fill="#0A2A0A"/>
<path d="M72.951 5.708L70.027 4.302L62.732 19.449L65.641 20.855L72.951 5.708Z" fill="#0A2A0A"/>
<path d="M51.19 0H47.96V16.832H51.19V0Z" fill="#0A2A0A"/>
<path d="M36.419 19.449L29.125 4.302L26.201 5.708L33.51 20.855L36.419 19.449Z" fill="#0A2A0A"/>
<path d="M24.2811 28.2352L11.1243 17.7377L9.1041 20.2696L22.2609 30.7671L24.2811 28.2352Z" fill="#0A2A0A"/>
<path d="M17.124 41.417L0.71 37.658L0 40.818L16.414 44.563L17.124 41.417Z" fill="#0A2A0A"/>
<path d="M39.315 91.814L61.032 87.887C61.06 87.623 61.074 87.344 61.074 87.066V84.964L38.298 89.07C38.494 90.046 38.842 90.965 39.315 91.814Z" fill="#0A2A0A"/>
<path d="M38.09 86.983L61.075 82.834V79.925L38.09 84.06V86.983Z" fill="#0A2A0A"/>
<path d="M60.602 90.102L40.665 93.694C41.319 94.418 42.071 95.031 42.92 95.532V100H56.257V95.531C58.291 94.306 59.85 92.385 60.602 90.102Z" fill="#0A2A0A"/>
<path d="M75.526 50.48C75.526 36.154 63.915 24.543 49.576 24.543C35.264 24.543 23.639 36.154 23.639 50.48C23.639 60.684 29.528 69.497 38.09 73.743V81.943L61.074 77.795V73.743C69.637 69.497 75.526 60.685 75.526 50.48Z" fill="#0A2A0A"/>
</g>
<defs>
<clipPath id="clip0_1_10">
<rect width="99.165" height="100" fill="white"/>
</clipPath>
</defs>
</svg>
