<svg width="122" height="132" viewBox="0 0 122 132" fill="none" xmlns="http://www.w3.org/2000/svg">
<path d="M96.9392 27.115C87.535 16.5 74.5217 10.78 61 11C47.4783 10.78 34.5158 16.5 25.1117 27.115C15.25 37.29 9.96333 51.37 10.1667 66C9.96333 80.63 15.25 94.655 25.0608 104.83C34.465 115.5 47.4783 121.22 61 121C74.5217 121.22 87.4842 115.5 96.8883 104.885C106.75 94.71 112.037 80.63 111.833 66C112.037 51.37 106.75 37.29 96.9392 27.115ZM86.4167 66V99H68.625V71.5H53.375V99H35.5833V66H25.4167L61 27.5L99.125 66H86.4167Z" fill="#0A2A0A"/>
</svg>
